<?xml version="1.0" standalone="no"?><!DOCTYPE svg PUBLIC "-//W3C//DTD SVG 1.1//EN" "http://www.w3.org/Graphics/SVG/1.1/DTD/svg11.dtd"><svg t="1775363885675" class="icon" viewBox="0 0 1024 1024" version="1.1" xmlns="http://www.w3.org/2000/svg" p-id="4660" xmlns:xlink="http://www.w3.org/1999/xlink" width="200" height="200"><path d="M512 37.178423c261.842324 0 474.821577 212.979253 474.821577 474.821577s-212.979253 474.821577-474.821577 474.821577S37.178423 773.842324 37.178423 512 250.157676 37.178423 512 37.178423m0-37.178423C228.912863 0 0 228.912863 0 512s228.912863 512 512 512 512-228.912863 512-512S794.556017 0 512 0z" fill="#707070" p-id="4661"></path><path d="M268.746888 614.506224H145.526971V362.755187h117.377593c55.767635 1.593361 84.979253 21.775934 89.228216 60.547718 0 29.742739-16.46473 49.394191-48.86307 59.485477 35.053942 7.435685 54.705394 27.087137 59.485477 58.423236-0.53112 48.863071-31.3361 73.294606-94.008299 73.294606z m-14.871369-209.792531h-51.518673v60.547718h51.518673c24.431535-0.53112 36.647303-11.153527 37.709543-31.86722-0.53112-18.589212-13.278008-27.618257-37.709543-28.680498z m5.842323 102.506224H202.887967v67.452282h55.767635c28.149378 0 42.489627-11.153527 43.551867-33.991701-1.593361-21.244813-15.93361-32.39834-42.489627-33.460581zM445.609959 613.443983H389.842324V346.821577h55.767635v266.622406zM670.273859 525.809129c-2.124481 59.485477-35.053942 90.290456-98.257261 92.414937-62.141079-3.717842-94.539419-34.522822-97.726142-92.414937 3.186722-61.609959 36.116183-93.477178 99.319503-95.60166 61.609959 2.124481 94.008299 33.991701 96.6639 95.60166z m-56.829876 0c-0.53112-33.991701-14.871369-51.518672-41.958506-52.580913-26.556017 0-39.834025 17.526971-39.834025 52.580913 0.53112 33.460581 13.809129 50.456432 39.834025 51.518672 27.618257 0 41.958506-17.526971 41.958506-51.518672zM694.705394 617.161826l60.547718 5.842323c2.124481 15.40249 13.278008 23.369295 32.929461 23.900415 22.838174-0.53112 34.522822-15.40249 35.585062-44.614108l-1.062241-23.900415c-11.153527 19.120332-30.273859 28.680498-55.767635 28.680498-48.863071-2.124481-73.825726-31.3361-75.419087-87.634854 0.53112-58.423237 27.618257-88.165975 79.66805-89.228216 24.431535 0.53112 41.427386 9.029046 51.518672 24.962655v-20.713692h55.767635v151.900414c3.717842 71.701245-28.680498 105.161826-98.257261 100.381743-53.643154-1.062241-81.792531-23.900415-85.510374-69.576763zM823.236515 518.904564v-5.842323c-0.53112-26.024896-12.746888-39.302905-36.647303-39.834025-26.024896 0.53112-39.302905 15.40249-39.834025 43.551867 0.53112 31.86722 13.809129 48.863071 38.771784 50.456432 25.493776-0.53112 37.709544-16.46473 37.709544-48.331951z" fill="#707070" p-id="4662"></path></svg>